<svg width="93" height="93" viewBox="0 0 93 93" fill="none" xmlns="http://www.w3.org/2000/svg">
<path d="M92.5 89.8347H89.5323V92.8025H92.5V89.8347Z" fill="#CDA274"/>
<path d="M71.7259 15.6412V3.77023H47.9839V0.80249H45.0162V3.77023H21.2743V35.833L12.371 30.6932V30.4799H12.0038L11.6829 30.2944L11.5753 30.4799H0.500061V51.2541C0.500061 54.5279 3.16175 57.1896 6.43554 57.1896H21.2743V63.1251H34.3026L28.9607 89.8347H0.500061V92.8025H86.5646V89.8347H64.0394L58.6975 63.1251H71.7259V39.3831H83.5968V36.4154H81.0446L83.7304 25.6759L78.2289 18.8C83.799 19.7756 88.0484 24.6353 88.0484 30.4799H91.0162C91.0162 25.6239 88.6605 21.317 85.0418 18.6089H92.5001V15.6412H71.7259ZM9.40329 51.2541C9.40329 52.8901 8.07151 54.2218 6.43554 54.2218C4.79958 54.2218 3.4678 52.8901 3.4678 51.2541V33.4477H9.40329V51.2541ZM20.3709 39.7819L23.3387 44.9198L13.7492 50.4584L19.6828 40.1789L20.3709 39.7819ZM12.371 35.0391L12.7698 34.3472L17.9077 37.315L12.371 46.9082V35.0391ZM13.163 54.2218L23.4444 48.2864H24.242V54.2218H13.163ZM45.0162 89.8347H31.9878L37.3297 63.1251H45.0162V89.8347ZM61.0123 89.8347H47.9839V63.1251H55.6704L61.0123 89.8347ZM68.6246 25.6759L71.3104 36.4154H68.7581V60.1573H24.242V57.1896H27.2097V46.1125L27.3934 46.0049L27.2097 45.6877V45.3186H26.9964L24.242 40.548V6.73797H68.7581V15.6412H59.8549V18.6089H67.3132C63.6944 21.317 61.3388 25.6239 61.3388 30.4799H64.3065C64.3065 24.6353 68.5559 19.7756 74.126 18.7981L68.6246 25.6759ZM80.4955 26.3826L77.9878 36.4154H74.3672L71.8594 26.3807L74.6936 22.838V28.996H77.6614V22.8398L80.4955 26.3826Z" fill="#CDA274"/>
<path d="M33.1452 12.6734H30.1775V15.6411H33.1452V12.6734Z" fill="#CDA274"/>
<path d="M62.8226 51.2541H59.8549V54.2218H62.8226V51.2541Z" fill="#CDA274"/>
<path d="M59.8549 33.4476C59.8549 26.0839 53.8638 20.0927 46.5001 20.0927C44.0999 20.0927 41.85 20.7382 39.9006 21.8511L35.8292 16.2532L33.429 17.9986L37.506 23.604C34.8332 26.0468 33.1453 29.5487 33.1453 33.4476C33.1453 40.8113 39.1364 46.8024 46.5001 46.8024C48.9003 46.8024 51.1502 46.1569 53.0996 45.044L57.171 50.6419L59.5711 48.8965L55.4942 43.2912C58.167 40.8484 59.8549 37.3465 59.8549 33.4476ZM46.5001 43.8347C40.7742 43.8347 36.113 39.1735 36.113 33.4476C36.113 30.5355 37.3223 27.9016 39.2607 26.0152L51.3431 42.6309C49.8944 43.3951 48.2492 43.8347 46.5001 43.8347ZM41.6571 24.2661C43.1057 23.5001 44.751 23.0605 46.5001 23.0605C52.226 23.0605 56.8872 27.7217 56.8872 33.4476C56.8872 36.3597 55.6778 38.9936 53.7395 40.8799L41.6571 24.2661Z" fill="#CDA274"/>
</svg>
