<svg width="86" height="87" viewBox="0 0 86 87" fill="none" xmlns="http://www.w3.org/2000/svg">
<path d="M58.7667 76.3741H55.9V69.2075V14.7408C55.9 14.4541 55.7567 14.0241 55.6133 13.8808L51.4567 1.4108C51.3134 0.837471 50.74 0.407471 50.1667 0.407471C49.5933 0.407471 49.02 0.837471 48.8767 1.4108L44.72 13.8808C44.5767 14.1675 44.4333 14.4541 44.4333 14.7408V69.2075V84.9741C44.4333 85.8341 45.0067 86.4075 45.8667 86.4075H54.4667C55.3267 86.4075 55.9 85.8341 55.9 84.9741V79.2408H60.2C61.06 79.2408 61.6334 78.6675 61.6334 77.8075V34.8075H58.7667V76.3741ZM47.3 16.1741H53.0333V67.7741H47.3V16.1741ZM50.1667 6.42747L52.46 13.3075H47.8734L50.1667 6.42747ZM53.0333 83.5408H47.3V70.6408H53.0333V83.5408Z" fill="#CDA274"/>
<path d="M84.5667 0.407471H68.8C67.94 0.407471 67.3667 0.980804 67.3667 1.8408V84.9741C67.3667 85.8341 67.94 86.4075 68.8 86.4075H84.5667C85.4267 86.4075 86 85.8341 86 84.9741V1.8408C86 0.980804 85.4267 0.407471 84.5667 0.407471ZM83.1334 83.5408H70.2334V73.5075H77.4V70.6408H70.2334V59.1741H77.4V56.3075H70.2334V44.8408H77.4V41.9741H70.2334V30.5075H77.4V27.6408H70.2334V16.1741H77.4V13.3075H70.2334V3.27414H83.1334V83.5408Z" fill="#CDA274"/>
<path d="M20.0667 14.7408C9.03 14.7408 0 23.7708 0 34.8075C0 42.5475 4.44333 49.5708 11.4667 52.8675V63.4741V70.6408C11.4667 71.5008 12.04 72.0741 12.9 72.0741H18.6333V76.3741H21.5V72.0741H27.2333C28.0933 72.0741 28.6667 71.5008 28.6667 70.6408V63.4741V52.8675C35.69 49.5708 40.1333 42.5475 40.1333 34.8075C40.1333 23.7708 31.1033 14.7408 20.0667 14.7408ZM25.8 69.2075H14.3333V64.9075H25.8V69.2075ZM26.66 50.7175C26.0867 50.8608 25.8 51.4341 25.8 52.0075V62.0408H14.3333V59.1741H21.5V56.3075H14.3333V52.0075C14.3333 51.4341 14.0467 50.8608 13.4733 50.7175C7.02333 47.9941 2.86667 41.6875 2.86667 34.8075C2.86667 25.3475 10.6067 17.6075 20.0667 17.6075C29.5267 17.6075 37.2667 25.3475 37.2667 34.8075C37.2667 41.6875 33.11 47.9941 26.66 50.7175Z" fill="#CDA274"/>
<path d="M23.3634 26.6375L20.0667 29.9342L16.77 26.6375L14.7634 28.6442L18.6334 32.5142V47.7075H21.5V32.5142L25.37 28.6442L23.3634 26.6375Z" fill="#CDA274"/>
</svg>
