<svg width="90" height="91" viewBox="0 0 90 91" fill="none" xmlns="http://www.w3.org/2000/svg">
<path d="M90.0001 42.6092V38.9639L46.9217 7.77052H43.0786L33.3872 14.7872V9.22213H36.2904V0.512451H7.25819V9.22213H10.1614V31.606L0.00012207 38.9639V42.6092H7.25819V64.3834H0.00012207V84.706H7.25819V90.5125H82.7421V60.0286C86.7449 60.0286 90.0001 56.7733 90.0001 52.7705C90.0001 48.7677 86.7449 45.5125 82.7421 45.5125V42.6092H90.0001ZM10.1614 3.41568H33.3872V6.3189H10.1614V3.41568ZM30.484 9.22213V16.8903L13.0646 29.5048V9.22213H30.484ZM5.80657 75.9963V81.8028H2.90335V67.2866H69.6775V81.8028H66.7743V75.9963H63.8711V81.8028H60.9679V75.9963H58.0646V81.8028H55.1614V75.9963H52.2582V81.8028H49.355V75.9963H46.4517V81.8028H43.5485V75.9963H40.6453V81.8028H37.7421V75.9963H34.8388V81.8028H31.9356V75.9963H29.0324V81.8028H26.1292V75.9963H23.2259V81.8028H20.3227V75.9963H17.4195V81.8028H14.5163V75.9963H11.613V81.8028H8.7098V75.9963H5.80657ZM79.8388 87.6092H10.1614V84.706H72.5808V64.3834H10.1614V42.6092H79.8388V45.5125H27.1417L16.2546 52.7705L27.1417 60.0286H79.8388V87.6092ZM76.9356 48.4157V57.1254H74.0324V48.4157H76.9356ZM30.484 51.3189V48.4157H71.1292V51.3189H30.484ZM71.1292 54.2221V57.1254H30.484V54.2221H71.1292ZM27.5808 48.7096V56.8332L21.4876 52.7705L27.5808 48.7096ZM87.0969 52.7705C87.0969 55.1711 85.1427 57.1254 82.7421 57.1254H79.8388V48.4157H82.7421C85.1427 48.4157 87.0969 50.3699 87.0969 52.7705ZM3.92673 39.706L44.0185 10.6737H45.9818L86.0735 39.706H3.92673Z" fill="#CDA274"/>
<path d="M45.0001 15.0281C38.5967 15.0281 33.3872 20.2376 33.3872 26.641C33.3872 33.0444 38.5967 38.2539 45.0001 38.2539C51.4035 38.2539 56.613 33.0444 56.613 26.641C56.613 20.2376 51.4035 15.0281 45.0001 15.0281ZM45.0001 35.3507C40.1971 35.3507 36.2904 31.444 36.2904 26.641C36.2904 21.838 40.1971 17.9313 45.0001 17.9313C49.8031 17.9313 53.7098 21.838 53.7098 26.641C53.7098 31.444 49.8031 35.3507 45.0001 35.3507Z" fill="#CDA274"/>
</svg>
