<svg width="18" height="12" viewBox="0 0 18 12" fill="none" xmlns="http://www.w3.org/2000/svg">
<path d="M1.24999 11.6344C0.83578 11.6344 0.5 11.2987 0.5 10.8844C0.5 10.4702 0.835781 10.1345 1.24999 10.1345H16.75C17.1642 10.1345 17.5 10.4702 17.5 10.8844C17.5 11.2987 17.1642 11.6344 16.75 11.6344H1.24999ZM1.24998 6.74981C0.835775 6.74981 0.5 6.41403 0.5 5.99983C0.5 5.58563 0.835775 5.24986 1.24998 5.24986H16.75C17.1642 5.24986 17.5 5.58563 17.5 5.99983C17.5 6.41403 17.1642 6.74981 16.75 6.74981H1.24998ZM1.24999 1.86521C0.83578 1.86521 0.5 1.52943 0.5 1.11522C0.5 0.701015 0.835781 0.365234 1.24999 0.365234H16.75C17.1642 0.365234 17.5 0.701015 17.5 1.11522C17.5 1.52943 17.1642 1.86521 16.75 1.86521H1.24999Z" fill="#292F36"/>
</svg>
